<svg id="Capa_1" enable-background="new 0 0 512.007 512.007" height="512" viewBox="0 0 512.007 512.007" width="512" xmlns="http://www.w3.org/2000/svg"><g><path d="m512.003 155.993c.32 49.39-22.53 95.8-61.51 125.7v44.98c0 34.64-7.86 69.48-22.74 100.75-14.88 31.28-36.94 59.36-63.81 81.22l-4.14 3.36h-65.8v-127c0-20.95-17.05-38-38-38s-38 17.05-38 38v127h-65.8l-4.14-3.36c-26.87-21.86-48.93-49.94-63.81-81.22-14.88-31.27-22.74-66.11-22.74-100.75v-44.98c-38.98-29.9-61.83-76.31-61.51-125.7.28-41.11 16.48-79.95 45.62-109.37 29.15-29.41 67.84-45.96 108.94-46.6 37.33-.59 72.85 11.79 101.44 35.06 28.59-23.27 64.1-35.65 101.44-35.06 41.1.64 79.79 17.19 108.94 46.6 29.14 29.42 45.34 68.26 45.62 109.37z" fill="#f9eae8"/><path d="m512.003 155.993c.32 49.39-22.53 95.8-61.51 125.7v44.98c0 34.64-7.86 69.48-22.74 100.75-14.88 31.28-36.94 59.36-63.81 81.22l-4.14 3.36h-65.8v-127c0-20.95-17.05-38-38-38v-311.92c28.59-23.27 64.1-35.65 101.44-35.06 41.1.64 79.79 17.19 108.94 46.6 29.14 29.42 45.34 68.26 45.62 109.37z" fill="#ead9d3"/></g></svg>