<svg id="Capa_1" enable-background="new 0 0 512 512" height="512" viewBox="0 0 512 512" width="512" xmlns="http://www.w3.org/2000/svg"><g><path d="m472.403 171.459c.271 41.751-19.045 80.982-51.996 106.257v38.023c0 29.282-6.644 58.733-19.223 85.166-12.578 26.442-31.226 50.178-53.94 68.657l-3.5 2.84h-55.622v-107.355c0-17.709-14.413-32.122-32.122-32.122s-32.122 14.413-32.122 32.122v107.356h-55.622l-3.5-2.84c-22.714-18.479-41.362-42.215-53.94-68.657-12.578-26.433-19.223-55.884-19.223-85.166v-38.023c-32.951-25.275-52.266-64.507-51.996-106.257.237-34.751 13.931-67.584 38.564-92.453 24.641-24.861 57.347-38.851 92.089-39.392 31.556-.499 61.582 9.966 85.75 29.637 24.168-19.671 54.185-30.136 85.75-29.637 34.743.541 67.448 14.531 92.09 39.392 24.632 24.869 38.326 57.701 38.563 92.452z" fill="#f9eae8"/><path d="m472.403 171.459c.271 41.751-19.045 80.982-51.996 106.257v38.023c0 29.282-6.644 58.733-19.223 85.166-12.578 26.442-31.226 50.178-53.94 68.657l-3.5 2.84h-55.622v-107.355c0-17.709-14.413-32.122-32.122-32.122v-263.674c24.168-19.671 54.185-30.136 85.75-29.637 34.743.541 67.448 14.531 92.09 39.392 24.632 24.87 38.326 57.702 38.563 92.453z" fill="#ead9d3"/><path d="m364.63 165.16v72.98c0 17.21-13.95 31.16-31.16 31.16h-154.94c-17.21 0-31.16-13.95-31.16-31.16v-72.98c0-17.21 13.95-31.16 31.16-31.16h154.94c17.21 0 31.16 13.95 31.16 31.16z" fill="#5ceae3"/><path d="m364.63 165.16v72.98c0 17.21-13.95 31.16-31.16 31.16h-77.47v-135.3h77.47c17.21 0 31.16 13.95 31.16 31.16z" fill="#00c9c9"/><path d="m379.63 186.65v-21.49c0-25.45-20.71-46.16-46.16-46.16h-154.94c-25.45 0-46.16 20.71-46.16 46.16v21.49h-132.37v30h132.37v21.49c0 25.45 20.71 46.16 46.16 46.16h154.94c25.45 0 46.16-20.71 46.16-46.16v-21.49h132.37v-30zm-174.9 67.65h-26.2c-8.91 0-16.16-7.25-16.16-16.16v-21.49h42.36zm0-67.65h-42.36v-21.49c0-8.91 7.25-16.16 16.16-16.16h26.2zm72.54 67.65h-42.54v-37.65h42.54zm0-67.65h-42.54v-37.65h42.54zm72.36 51.49c0 8.91-7.25 16.16-16.16 16.16h-26.2v-37.65h42.36zm0-51.49h-42.36v-37.65h26.2c8.91 0 16.16 7.25 16.16 16.16z" fill="#48568c"/><path d="m379.63 186.65v-21.49c0-25.45-20.71-46.16-46.16-46.16h-77.47v30h21.27v37.65h-21.27v30h21.27v37.65h-21.27v30h77.47c25.45 0 46.16-20.71 46.16-46.16v-21.49h132.37v-30zm-30 51.49c0 8.91-7.25 16.16-16.16 16.16h-26.2v-37.65h42.36zm0-51.49h-42.36v-37.65h26.2c8.91 0 16.16 7.25 16.16 16.16z" fill="#2c3b73"/></g></svg>