<svg id="Capa_1" enable-background="new 0 0 512.045 512.045" height="512" viewBox="0 0 512.045 512.045" width="512" xmlns="http://www.w3.org/2000/svg"><g><path d="m480.575 153.925-123.257 22.073-66.128 66.127-21.272-21.272 66.128-66.127 22.073-123.258 153.924-31.468z" fill="#bcdbfd"/><path d="m291.19 242.125-10.636-10.636 231.489-231.489-31.468 153.925-123.257 22.073z" fill="#9bbad9"/><path d="m330.189 259.852-236.063 236.063c-21.506 21.506-56.491 21.506-77.997 0-21.499-21.499-21.506-56.491 0-77.997l236.063-236.063z" fill="#e0f4fe"/><g fill="#bcdbfd"><path d="m330.189 259.852-236.063 236.063c-21.506 21.506-56.491 21.506-77.997 0l275.061-275.062z"/><path d="m226.662 215.187h30.083v110.305h-30.083z" transform="matrix(.707 -.707 .707 .707 -120.365 250.091)"/><path d="m171.362 270.487h30.083v110.305h-30.083z" transform="matrix(.707 -.707 .707 .707 -175.666 227.185)"/><path d="m246.162 262.262h30.083v55.153h-30.083z" transform="matrix(.707 -.707 .707 .707 -128.442 269.591)"/><path d="m190.862 317.563h30.083v55.153h-30.083z" transform="matrix(.707 -.707 .707 .707 -183.742 246.684)"/></g><path d="m246.162 262.262h30.083v55.153h-30.083z" fill="#9bbad9" transform="matrix(.707 -.707 .707 .707 -128.442 269.591)"/><path d="m190.862 317.563h30.083v55.153h-30.083z" fill="#9bbad9" transform="matrix(.707 -.707 .707 .707 -183.742 246.684)"/></g></svg>