<svg id="Capa_1" enable-background="new 0 0 512.003 512.003" height="512" viewBox="0 0 512.003 512.003" width="512" xmlns="http://www.w3.org/2000/svg"><g><path d="m430.773 175.696c.28 41.45-18.7 80.41-51.14 105.78v36.16c0 59.72-26.57 115.58-72.9 153.26l-4.13 3.37h-58.14v-108.13c0-16.03-13.04-29.07-29.07-29.07s-29.07 13.04-29.07 29.07v108.13h-58.14l-4.14-3.37c-46.33-37.68-72.9-93.54-72.9-153.26v-36.16c-32.43-25.37-51.41-64.33-51.14-105.78.23-34.84 13.96-67.76 38.66-92.69 24.71-24.94 57.5-38.96 92.35-39.5 30.91-.49 60.43 9.54 84.38 28.44 23.95-18.9 53.42-28.92 84.38-28.44 34.84.54 67.64 14.56 92.34 39.5 24.7 24.931 38.43 57.85 38.66 92.69z" fill="#f9eae8"/><path d="m430.773 175.696c.28 41.45-18.7 80.41-51.14 105.78v36.16c0 59.72-26.57 115.58-72.9 153.26l-4.13 3.37h-58.14v-108.13c0-16.03-13.04-29.07-29.07-29.07v-265.12c23.95-18.9 53.42-28.92 84.38-28.44 34.84.54 67.64 14.56 92.34 39.5 24.7 24.931 38.43 57.85 38.66 92.69z" fill="#ead9d3"/><path d="m512.003 128.846v4.071l-57.11 31.24-32.75 59.879h-1.03l-32.75-59.879-57.11-31.24v-4.071l57.11-31.23 32.75-59.88h1.03l32.75 59.88z" fill="#5ceae3"/><path d="m512.003 128.846v4.071l-57.11 31.24-32.75 59.879h-.52v-186.3h.52l32.75 59.88z" fill="#00c9c9"/><path d="m345.847 217.674v2.706l-37.971 20.771-21.775 39.813h-.685l-21.775-39.813-37.971-20.771v-2.706l37.971-20.764 21.775-39.813h.685l21.775 39.813z" fill="#5ceae3"/><path d="m345.847 217.674v2.706l-37.971 20.771-21.775 39.813h-.346v-123.867h.346l21.775 39.813z" fill="#00c9c9"/><path d="m460.987 324.118v3.376l-47.368 25.911-27.164 49.666h-.854l-27.164-49.666-47.368-25.911v-3.376l47.368-25.903 27.164-49.666h.854l27.164 49.666z" fill="#5ceae3"/><path d="m460.987 324.118v3.376l-47.368 25.911-27.164 49.666h-.431v-154.522h.431l27.164 49.666z" fill="#00c9c9"/></g></svg>