<svg id="Capa_1" enable-background="new 0 0 512.003 512.003" height="512" viewBox="0 0 512.003 512.003" width="512" xmlns="http://www.w3.org/2000/svg"><g><path d="m430.773 156.173c.28 41.45-18.7 80.41-51.14 105.78v36.16c0 59.72-26.57 115.58-72.9 153.26l-4.13 3.37h-58.14v-108.13c0-16.03-13.04-29.07-29.07-29.07s-29.07 13.04-29.07 29.07v108.13h-58.14l-4.14-3.37c-46.33-37.68-72.9-93.54-72.9-153.26v-36.16c-32.43-25.37-51.41-64.33-51.14-105.78.23-34.84 13.96-67.76 38.66-92.69 24.71-24.94 57.5-38.96 92.35-39.5 30.91-.49 60.43 9.54 84.38 28.44 23.95-18.9 53.42-28.92 84.38-28.44 34.84.54 67.64 14.56 92.34 39.5 24.7 24.93 38.43 57.85 38.66 92.69z" fill="#f9eae8"/><path d="m430.773 156.173c.28 41.45-18.7 80.41-51.14 105.78v36.16c0 59.72-26.57 115.58-72.9 153.26l-4.13 3.37h-58.14v-108.13c0-16.03-13.04-29.07-29.07-29.07v-265.12c23.95-18.9 53.42-28.92 84.38-28.44 34.84.54 67.64 14.56 92.34 39.5 24.7 24.93 38.43 57.85 38.66 92.69z" fill="#ead9d3"/><path d="m396.759 354.587h29.573v65.997h-29.573z" fill="#bcdbfd" transform="matrix(.707 -.707 .707 .707 -153.526 404.528)"/><path d="m409.38 349.359h14.786v65.997h-14.786z" fill="#9bbad9" transform="matrix(.707 -.707 .707 .707 -148.298 406.693)"/><circle cx="324.886" cy="300.926" fill="#bcdbfd" r="94.761"/><path d="m391.892 233.92c37.006 37.006 37.006 97.007 0 134.013l-134.012-134.013c37.005-37.006 97.007-37.006 134.012 0z" fill="#9bbad9"/><path d="m247.424 223.464c-42.715 42.715-42.715 112.209 0 154.924 21.357 21.357 49.406 32.036 77.462 32.029 28.056.007 56.105-10.672 77.462-32.029 42.715-42.715 42.715-112.21 0-154.924s-112.209-42.714-154.924 0zm134.013 134.013c-31.179 31.179-81.923 31.179-113.102 0-31.186-31.186-31.179-81.923 0-113.102 15.593-15.593 36.072-23.386 56.551-23.386s40.958 7.793 56.551 23.386c31.178 31.179 31.185 81.917 0 113.102z" fill="#e0f4fe"/><path d="m451.684 381.636 50.772 50.772c12.728 12.728 12.728 33.36 0 46.088-12.721 12.721-33.353 12.721-46.081-.007l-50.772-50.772c-.788-.788-.788-2.056 0-2.844l43.237-43.237c.788-.787 2.057-.787 2.844 0z" fill="#48568c"/><path d="m451.684 381.636 50.772 50.772c12.728 12.728 12.728 33.36 0 46.088l-75.238-75.238 21.622-21.622c.788-.787 2.057-.787 2.844 0z" fill="#2c3b73"/><path d="m402.348 223.464c42.715 42.715 42.715 112.209 0 154.924l-20.911-20.911c31.186-31.186 31.179-81.923 0-113.102-15.593-15.593-36.072-23.386-56.551-23.386s-40.958 7.793-56.551 23.386l-20.911-20.911c42.715-42.714 112.209-42.714 154.924 0z" fill="#bcdbfd"/></g></svg>