<svg id="Capa_1" enable-background="new 0 0 512 512" height="512" viewBox="0 0 512 512" width="512" xmlns="http://www.w3.org/2000/svg"><g><path d="m512 497v15h-512v-15c0-55.69 45.31-101 101-101h310c55.69 0 101 45.31 101 101z" fill="#00c9c9"/><path d="m512 497v15h-256v-116h155c55.69 0 101 45.31 101 101z" fill="#00a8b5"/><path d="m433.01 235.38v35.51c0 20.13-16.37 36.5-36.49 36.5h-3.47v7.03c0 23.58-5.96 45.79-16.46 65.2-23.19 42.91-68.53 37.352-120.59 37.552 0 0-99.09 5.058-122.2-38.542-10.16-19.18-15.92-41.04-15.92-64.21v-7.03h-2.4c-20.12 0-36.49-16.37-36.49-36.5v-29.03c0-20.12 16.37-36.49 36.49-36.49h2.4v-160.58l6.05-4.5c34.92-25.98 78.13-40.29 121.66-40.29h19.75c43.53 0 86.74 14.31 121.66 40.29l6.05 4.5v160.58h3.47c33.86 0 36.49 22.97 36.49 30.01z" fill="#f2cecd"/><path d="m433.01 235.38v35.51c0 20.13-16.37 36.5-36.49 36.5h-3.47v7.03c0 23.58-5.96 45.79-16.46 65.2-23.19 42.91-68.53 21.602-120.59 21.801v-401.421h9.34c43.53 0 86.74 14.31 121.66 40.29l6.05 4.5v160.58h3.47c33.86 0 36.49 22.97 36.49 30.01z" fill="#e8b4b5"/><path d="m393.05 44.79v134.88l-137.05-47.26-138.12 47.26v-134.88l6.05-4.5c34.92-25.98 78.13-40.29 121.66-40.29h19.75c43.53 0 86.74 14.31 121.66 40.29z" fill="#5ceae3"/><path d="m393.05 44.79v134.88l-137.05-47.26v-132.41h9.34c43.53 0 86.74 14.31 121.66 40.29z" fill="#00c9c9"/><g><path d="m206.81 159.08-88.93 45.86v-33.75l75.17-38.78z" fill="#48568c"/><path d="m319.03 132.63 74.02 38.81v33.88l-87.95-46.12z" fill="#2c3b73"/></g><circle cx="256" cy="144.76" fill="#bcdbfd" r="66.76"/><path d="m256 211.52v-133.52c36.87 0 66.76 29.89 66.76 66.76s-29.89 66.76-66.76 66.76z" fill="#9bbad9"/><path d="m376.59 379.62c-23.19 42.91-68.53 72.18-120.59 72.38h-.54c-52.69 0-98.55-29.77-121.66-73.37l10.19-13.16 10.59-13.68 23.02-29.75c8.6-11.1 22.11-17.73 36.15-17.73h84.09c14.42 0 28.16 6.92 36.74 18.52l21.65 29.27 10.4 14.05z" fill="#5ceae3"/><g><path d="m177.979 247.108h30v29.612h-30z" fill="#48568c"/><path d="m304.021 247.108h30v29.612h-30z" fill="#2c3b73"/></g><path d="m256 63c-45.08 0-81.76 36.68-81.76 81.76s36.68 81.76 81.76 81.76 81.76-36.68 81.76-81.76-36.68-81.76-81.76-81.76zm0 133.52c-28.54 0-51.76-23.22-51.76-51.76s23.22-51.76 51.76-51.76 51.76 23.22 51.76 51.76-23.22 51.76-51.76 51.76z" fill="#e0f4fe"/><path d="m241 130.04h30v29.44h-30z" fill="#febf00"/><path d="m256 130.04h15v29.44h-15z" fill="#fd9100"/><path d="m337.76 144.76c0 45.08-36.68 81.76-81.76 81.76v-30c28.54 0 51.76-23.22 51.76-51.76s-23.22-51.76-51.76-51.76v-30c45.08 0 81.76 36.68 81.76 81.76z" fill="#bcdbfd"/><path d="m376.59 379.62c-23.19 42.91-68.53 72.18-120.59 72.38v-147.69h41.84c14.42 0 28.16 6.92 36.74 18.52l21.65 29.27 10.4 14.05z" fill="#00c9c9"/></g></svg>