<svg id="Capa_1" enable-background="new 0 0 510.043 510.043" height="512" viewBox="0 0 510.043 510.043" width="512" xmlns="http://www.w3.org/2000/svg"><g><path d="m479.878 80.143-112.904 112.904-21.213-21.213 104.242-104.242.686-67.592 29.995.297-.594 59.015z" fill="#bcdbfd"/><path d="m366.974 193.047-10.309-10.309 123.425-123.426-.212 20.831z" fill="#9bbad9"/><path d="m411.918 205.266-288.669 288.669c-10.387 10.387-24.197 16.108-38.891 16.108s-28.503-5.72-38.891-16.108c-10.387-10.387-16.115-24.204-16.108-38.891 0-14.694 5.721-28.503 16.108-38.891l288.669-288.669z" fill="#e0f4fe"/><g fill="#bcdbfd"><path d="m411.918 205.266-288.669 288.669c-10.387 10.387-24.197 16.108-38.891 16.108s-28.503-5.72-38.891-16.108l327.56-327.56z"/><path d="m294.161 175.241h30v110h-30z" transform="matrix(.707 -.707 .707 .707 -72.254 286.046)"/><path d="m239.007 230.395h30v110h-30z" transform="matrix(.707 -.707 .707 .707 -127.408 263.2)"/><path d="m183.853 285.55h30v110h-30z" transform="matrix(.707 -.707 .707 .707 -182.562 240.355)"/></g><path d="m313.607 222.186h30v55h-30z" fill="#9bbad9" transform="matrix(.707 -.707 .707 .707 -80.308 305.492)"/><path d="m258.452 277.341h30v55h-30z" fill="#9bbad9" transform="matrix(.707 -.707 .707 .707 -135.463 282.646)"/><path d="m203.298 332.495h30v55h-30z" fill="#9bbad9" transform="matrix(.707 -.707 .707 .707 -190.617 259.8)"/></g></svg>